<svg fill="none" height="24" viewBox="0 0 24 24" width="24" xmlns="http://www.w3.org/2000/svg"><g stroke="white" stroke-linecap="round" stroke-linejoin="round" stroke-width="1.5"><path d="m12.14 7.62h-5.26999c-1.86 0-2.27999.93001-2.50999 2.08001l-.85001 4.04999h11.99999l-.85-4.04999c-.25-1.15-.66-2.08001-2.52-2.08001z"/><path d="m16.99 20.36c.08.88-.62 1.64-1.52 1.64h-1.41c-.81 0-.92-.35-1.07-.77l-.15-.45c-.21-.61-.35-1.03-1.43-1.03h-3.83999c-1.08 0-1.24001.47-1.43001 1.03l-.14999.45c-.14.43-.25001.77-1.07001.77h-1.41001c-.9 0-1.60998-.76-1.51998-1.64l.41999-4.57c.11-1.13.32-2.05 2.29-2.05h9.57c1.97 0 2.18.92 2.29 2.05z"/><path d="m3.5 11.5h-.75"/><path d="m16.25 11.5h-.75"/><path d="m5 16.75h2.25"/><path d="m11.75 16.75h2.25"/><path d="m18.71 8.73992c.28-.65.18-1.52999-.34-2.29999-.51-.77-1.29-1.2-2-1.19"/><path d="m21.82 9.72998c.42-1.51.12-3.35996-.95-4.95996s-2.67-2.58002-4.23-2.77002"/></g></svg>